# File created by Blade
# Date/Time:  Thu Jan 22 19:29:39 2015
# Frame Rate: 120.000 fps
#------------------------------------------------------
:FULLY-SPECIFIED
:DEGREES
1764
root 1.436735 33.532235 1.564020 21.832961 -29.416423 -7.740605
RightUpLeg -29.020646 6.932711 4.932944
RightLeg 32.398721 -0.000000 -0.000000
RightFoot -15.496368 6.651488 12.749205
RightToeBase -10.405711 -0.000000 0.000000
LeftUpLeg -19.685407 9.794875 -4.424018
LeftLeg 12.490837 -0.000000 -0.000000
LeftFoot -18.467734 6.727520 -14.132704
LeftToeBase 12.249196 -0.000000 -0.000000
Spine -2.973406 -5.550554 -2.000533
RightShoulder -19.410975 -24.981615 -11.096958
RightArm 21.251714 -29.939577 70.676120
RightForeArm -5.879032 0.000000 66.634837
RightHand 0.642770 -0.000000 3.552331
RightHandThumb1 -24.326973 -0.000000 -32.862282
LeftShoulder -21.798004 -1.424613 31.713595
LeftArm 42.605365 -9.719259 -85.917843
LeftForeArm 18.975063 -0.000000 79.312509
LeftHand -11.676522 -0.000000 34.162471
LeftHandThumb1 -26.253704 0.000000 33.147579
Head -22.015936 26.748235 -5.496894
1765
root 1.431223 33.525829 1.564682 21.371556 -29.124643 -7.460618
RightUpLeg -28.760466 6.716640 4.884220
RightLeg 32.028382 -0.000000 -0.000000
RightFoot -15.686339 6.045575 12.093002
RightToeBase -10.695619 -0.000000 0.000000
LeftUpLeg -19.337992 9.691707 -4.508931
LeftLeg 12.424703 -0.000000 -0.000000
LeftFoot -18.491913 6.350029 -14.571591
LeftToeBase 12.830272 -0.000000 -0.000000
Spine -2.988405 -5.581223 -2.070866
RightShoulder -19.498542 -25.048809 -11.093440
RightArm 21.247862 -29.681426 70.535813
RightForeArm -5.907902 -0.000000 66.707162
RightHand 0.604266 0.000000 3.611500
RightHandThumb1 -24.326973 -0.000000 -32.862282
LeftShoulder -21.853367 -1.345061 31.614331
LeftArm 42.043129 -9.613940 -86.076309
LeftForeArm 18.643830 -0.000000 79.481758
LeftHand -11.610403 -0.000000 34.420789
LeftHandThumb1 -26.253704 0.000000 33.147579
Head -21.717598 26.559227 -5.275896
1766
root 1.417824 33.521606 1.561694 20.929497 -28.816580 -7.225133
RightUpLeg -28.434451 6.709552 4.801304
RightLeg 31.557971 -0.000000 -0.000000
RightFoot -15.864074 5.254361 11.593501
RightToeBase -10.682161 -0.000000 0.000000
LeftUpLeg -18.999073 9.684422 -4.559065
LeftLeg 12.396134 -0.000000 -0.000000
LeftFoot -18.533433 5.755139 -15.201982
LeftToeBase 13.516886 -0.000000 -0.000000
Spine -2.993069 -5.553713 -2.129023
RightShoulder -19.583087 -25.125980 -11.054448
RightArm 21.162276 -29.342651 70.448667
RightForeArm -5.933593 -0.000000 66.804602
RightHand 0.548649 -0.000000 3.375250
RightHandThumb1 -24.326973 -0.000000 -32.862282
LeftShoulder -21.919213 -1.218205 31.502237
LeftArm 41.538687 -9.416493 -86.077703
LeftForeArm 18.550737 -0.000000 79.596136
LeftHand -11.563229 -0.000000 34.449347
LeftHandThumb1 -26.253704 0.000000 33.147579
Head -21.457989 26.374139 -5.055384
1767
root 1.405083 33.516212 1.557152 20.534629 -28.526676 -7.009009
RightUpLeg -28.161281 6.773940 4.702443
RightLeg 31.142975 -0.000000 -0.000000
RightFoot -16.052582 4.337406 11.346835
RightToeBase -10.156689 -0.000000 0.000000
LeftUpLeg -18.694895 9.675149 -4.599607
LeftLeg 12.370671 -0.000000 -0.000000
LeftFoot -18.557520 5.288219 -15.614883
LeftToeBase 13.582900 -0.000000 -0.000000
Spine -3.034108 -5.498750 -2.178810
RightShoulder -19.654750 -25.135614 -11.055618
RightArm 20.963941 -28.993253 70.447557
RightForeArm -5.996615 0.000000 66.886873
RightHand 0.597702 -0.000000 3.153897
RightHandThumb1 -24.326973 -0.000000 -32.862282
LeftShoulder -21.988480 -1.082841 31.375945
LeftArm 41.099068 -9.210669 -86.106067
LeftForeArm 18.699806 -0.000000 79.636992
LeftHand -11.624025 -0.000000 34.419370
LeftHandThumb1 -26.253704 0.000000 33.147579
Head -21.195946 26.126285 -4.847523
1768
root 1.390918 33.510292 1.554522 20.177237 -28.206639 -6.753656
RightUpLeg -27.960316 6.765507 4.557698
RightLeg 30.802891 -0.000000 -0.000000
RightFoot -16.135685 3.654434 11.259762
RightToeBase -10.202211 -0.000000 0.000000
LeftUpLeg -18.374343 9.461730 -4.630909
LeftLeg 12.216958 -0.000000 -0.000000
LeftFoot -18.613125 4.948187 -16.190616
LeftToeBase 14.513361 -0.000000 -0.000000
Spine -3.131462 -5.525619 -2.250391
RightShoulder -19.761529 -25.307023 -10.997302
RightArm 20.978047 -28.616088 70.320363
RightForeArm -6.092529 -0.000000 66.963846
RightHand 0.442173 0.000000 3.432177
RightHandThumb1 -24.326973 -0.000000 -32.862282
LeftShoulder -22.118342 -0.922228 31.240748
LeftArm 40.646127 -9.056001 -86.133671
LeftForeArm 18.522292 -0.000000 79.726225
LeftHand -11.623458 -0.000000 34.605655
LeftHandThumb1 -26.253704 0.000000 33.147579
Head -20.988121 25.900234 -4.697984
1769
root 1.381600 33.501965 1.551539 19.803278 -27.904723 -6.480395
RightUpLeg -27.755267 6.701576 4.377603
RightLeg 30.513949 -0.000000 -0.000000
RightFoot -16.312509 2.876041 10.576877
RightToeBase -10.018291 -0.000000 0.000000
LeftUpLeg -18.065208 9.355437 -4.715436
LeftLeg 12.091459 -0.000000 -0.000000
LeftFoot -18.646106 4.462308 -16.849269
LeftToeBase 15.161670 -0.000000 -0.000000
Spine -3.218161 -5.505146 -2.371249
RightShoulder -19.857851 -25.289756 -11.018420
RightArm 20.820868 -28.347031 70.243520
RightForeArm -5.967156 -0.000000 66.961581
RightHand 0.532232 -0.000000 3.021881
RightHandThumb1 -24.326973 -0.000000 -32.862282
LeftShoulder -22.175932 -0.852021 31.175263
LeftArm 40.077447 -8.937851 -86.154664
LeftForeArm 18.341127 -0.000000 79.832506
LeftHand -11.616542 0.000000 34.944992
LeftHandThumb1 -26.253704 0.000000 33.147579
Head -20.768906 25.701378 -4.496119
1770
root 1.371241 33.494955 1.543378 19.439522 -27.634412 -6.245042
RightUpLeg -27.556193 6.720442 4.202400
RightLeg 30.206182 -0.000000 -0.000000
RightFoot -16.292199 2.036124 9.967026
RightToeBase -10.543194 -0.000000 0.000000
LeftUpLeg -17.768646 9.358855 -4.802023
LeftLeg 11.974262 -0.000000 -0.000000
LeftFoot -18.601550 4.024595 -17.266494
LeftToeBase 15.309708 -0.000000 -0.000000
Spine -3.273771 -5.469414 -2.473317
RightShoulder -19.881096 -25.374815 -11.056152
RightArm 20.760662 -27.910144 70.255075
RightForeArm -6.138229 -0.000000 66.888775
RightHand 0.522114 -0.000000 3.114892
RightHandThumb1 -24.326973 -0.000000 -32.862282
LeftShoulder -22.261909 -0.674705 31.017339
LeftArm 39.666831 -8.850455 -86.148776
LeftForeArm 18.305238 -0.000000 79.885686
LeftHand -11.711249 -0.000000 35.360060
LeftHandThumb1 -26.253704 0.000000 33.147579
Head -20.577994 25.485013 -4.325928
1771
root 1.361610 33.485714 1.530746 19.073849 -27.362437 -6.038334
RightUpLeg -27.371523 6.693607 4.046982
RightLeg 30.013340 -0.000000 -0.000000
RightFoot -16.279502 1.434072 9.554641
RightToeBase -10.378764 -0.000000 0.000000
LeftUpLeg -17.506051 9.454206 -4.881616
LeftLeg 11.947482 -0.000000 -0.000000
LeftFoot -18.667081 3.415840 -17.929867
LeftToeBase 15.776994 -0.000000 -0.000000
Spine -3.307781 -5.260161 -2.581897
RightShoulder -19.948004 -25.429584 -11.065007
RightArm 20.501209 -27.412888 70.359561
RightForeArm -6.164487 -0.000000 66.897721
RightHand 0.666081 -0.000000 2.670736
RightHandThumb1 -24.326973 -0.000000 -32.862282
LeftShoulder -22.180514 -0.580797 30.890690
LeftArm 39.258174 -8.805924 -86.218050
LeftForeArm 18.320941 0.000000 79.938612
LeftHand -11.709917 -0.000000 35.678672
LeftHandThumb1 -26.253704 0.000000 33.147579
Head -20.338146 25.139369 -4.116627
1772
root 1.347683 33.476704 1.526789 18.690596 -27.106495 -5.801917
RightUpLeg -27.146501 6.624191 3.853929
RightLeg 29.763043 -0.000000 -0.000000
RightFoot -16.277716 1.040797 9.234214
RightToeBase -10.132066 -0.000000 0.000000
LeftUpLeg -17.233163 9.726069 -5.004850
LeftLeg 11.948140 -0.000000 -0.000000
LeftFoot -18.576943 2.640989 -18.388862
LeftToeBase 15.585116 -0.000000 -0.000000
Spine -3.340294 -5.121655 -2.740806
RightShoulder -20.098796 -25.515508 -11.003878
RightArm 20.397841 -27.004720 70.295568
RightForeArm -6.304374 -0.000000 66.885833
RightHand 0.431543 0.000000 3.164996
RightHandThumb1 -24.326973 -0.000000 -32.862282
LeftShoulder -22.222983 -0.362780 30.722369
LeftArm 38.943988 -8.719784 -86.245629
LeftForeArm 18.202805 -0.000000 79.990609
LeftHand -11.767240 -0.000000 36.335906
LeftHandThumb1 -26.253704 0.000000 33.147579
Head -20.167815 24.819341 -3.916038
1773
root 1.337328 33.469142 1.518747 18.333390 -26.842440 -5.563353
RightUpLeg -26.950601 6.489000 3.663683
RightLeg 29.525493 -0.000000 -0.000000
RightFoot -16.110705 0.661410 8.807573
RightToeBase -10.378026 -0.000000 0.000000
LeftUpLeg -16.928157 9.661365 -5.078977
LeftLeg 11.840996 -0.000000 -0.000000
LeftFoot -18.531758 2.242735 -18.813912
LeftToeBase 15.522370 -0.000000 -0.000000
Spine -3.383088 -5.039020 -2.885594
RightShoulder -20.121952 -25.536039 -11.034452
RightArm 20.205219 -26.558388 70.343064
RightForeArm -6.404623 -0.000000 66.838542
RightHand 0.410545 -0.000000 3.058171
RightHandThumb1 -24.326973 -0.000000 -32.862282
LeftShoulder -22.284122 -0.211543 30.554072
LeftArm 38.495356 -8.728667 -86.282210
LeftForeArm 17.905618 -0.000000 80.131572
LeftHand -11.550240 -0.000000 36.406102
LeftHandThumb1 -26.253704 0.000000 33.147579
Head -20.029554 24.552203 -3.764924
1774
root 1.324405 33.461325 1.508257 17.995709 -26.540638 -5.347908
RightUpLeg -26.759076 6.326566 3.492104
RightLeg 29.300349 -0.000000 -0.000000
RightFoot -15.995950 0.491899 8.683924
RightToeBase -10.349917 -0.000000 0.000000
LeftUpLeg -16.655145 9.596480 -5.126068
LeftLeg 11.753220 -0.000000 -0.000000
LeftFoot -18.531035 1.826018 -19.224475
LeftToeBase 15.486672 -0.000000 -0.000000
Spine -3.425486 -4.968394 -3.030802
RightShoulder -20.170023 -25.611202 -11.032105
RightArm 20.077001 -26.131420 70.323715
RightForeArm -6.378106 -0.000000 66.752473
RightHand 0.295578 -0.000000 2.960921
RightHandThumb1 -24.326973 -0.000000 -32.862282
LeftShoulder -22.371551 -0.045362 30.424126
LeftArm 38.097739 -8.644653 -86.302039
LeftForeArm 17.865549 -0.000000 80.193078
LeftHand -11.608580 -0.000000 36.846194
LeftHandThumb1 -26.253704 0.000000 33.147579
Head -19.898165 24.266392 -3.571900
